<svg xmlns="http://www.w3.org/2000/svg" version="1.1" xmlns:xlink="http://www.w3.org/1999/xlink" xmlns:svgjs="http://svgjs.dev/svgjs" viewBox="0 0 7.486953332240548 1.784568273568324"><g transform="matrix(1,0,0,1,0.2887841367841619,0.532284136784162)"><g><path d=" M 0.099 0.7099999999999999 Q 0.088 0.7099999999999999 0.081 0.7029999999999998 Q 0.074 0.6959999999999998 0.074 0.6849999999999998 L 0.074 0.03499999999999981 Q 0.074 0.0239999999999998 0.081 0.016999999999999793 Q 0.088 0.009999999999999787 0.099 0.009999999999999787 L 0.552 0.009999999999999787 Q 0.5630000000000001 0.009999999999999787 0.5700000000000001 0.016999999999999793 Q 0.577 0.0239999999999998 0.577 0.03499999999999981 L 0.577 0.11499999999999988 Q 0.577 0.12499999999999989 0.5700000000000001 0.1319999999999999 Q 0.5630000000000001 0.1389999999999998 0.552 0.1389999999999998 L 0.228 0.1389999999999998 L 0.228 0.2959999999999998 L 0.53 0.2959999999999998 Q 0.541 0.2959999999999998 0.548 0.3029999999999998 Q 0.555 0.30999999999999983 0.555 0.32099999999999984 L 0.555 0.39499999999999985 Q 0.555 0.40499999999999986 0.548 0.41199999999999987 Q 0.541 0.4189999999999999 0.53 0.4189999999999999 L 0.228 0.4189999999999999 L 0.228 0.5809999999999998 L 0.56 0.5809999999999998 Q 0.5710000000000001 0.5809999999999998 0.578 0.5879999999999999 Q 0.585 0.5949999999999999 0.585 0.6059999999999999 L 0.585 0.6849999999999998 Q 0.585 0.6959999999999998 0.578 0.7029999999999998 Q 0.5710000000000001 0.7099999999999999 0.56 0.7099999999999999 L 0.099 0.7099999999999999 M 0.9790234375 0.7199999999999999 Q 0.8850234375 0.7199999999999999 0.8195234375 0.6884999999999999 Q 0.7540234375 0.6569999999999998 0.7180234375 0.5964999999999998 Q 0.6820234375 0.5359999999999998 0.6780234375 0.44899999999999984 Q 0.6770234375 0.40799999999999986 0.6770234375 0.3609999999999998 Q 0.6770234375 0.31399999999999983 0.6780234375 0.27099999999999985 Q 0.6820234375 0.18499999999999983 0.7185234375 0.12449999999999983 Q 0.7550234375 0.06399999999999983 0.8210234375000001 0.031999999999999806 Q 0.8870234375 -1.1102230246251565e-16 0.9790234375 -1.1102230246251565e-16 Q 1.0460234375 -1.1102230246251565e-16 1.1010234375 0.016999999999999793 Q 1.1560234375 0.03399999999999981 1.1960234375 0.06599999999999984 Q 1.2360234375 0.09799999999999986 1.2580234375 0.1409999999999998 Q 1.2800234375000001 0.18399999999999983 1.2820234375 0.23699999999999982 Q 1.2820234375 0.24599999999999983 1.2755234375 0.25199999999999984 Q 1.2690234375 0.25799999999999984 1.2600234375000001 0.25799999999999984 L 1.1460234375 0.25799999999999984 Q 1.1340234375 0.25799999999999984 1.1270234375000001 0.25199999999999984 Q 1.1200234375 0.24599999999999983 1.1160234375 0.23199999999999982 Q 1.1010234375 0.17299999999999982 1.0660234375 0.1509999999999998 Q 1.0310234375 0.1289999999999999 0.9790234375 0.1289999999999999 Q 0.9170234374999999 0.1289999999999999 0.8810234375 0.1629999999999998 Q 0.8450234375 0.19699999999999984 0.8420234375 0.27599999999999986 Q 0.8390234375 0.3579999999999999 0.8420234375 0.44399999999999984 Q 0.8450234375 0.5229999999999999 0.8810234375 0.5569999999999998 Q 0.9170234374999999 0.5909999999999999 0.9790234375 0.5909999999999999 Q 1.0310234375 0.5909999999999999 1.0665234375 0.5684999999999998 Q 1.1020234375 0.5459999999999998 1.1160234375 0.4879999999999999 Q 1.1200234375 0.47299999999999986 1.1270234375000001 0.46749999999999986 Q 1.1340234375 0.46199999999999986 1.1460234375 0.46199999999999986 L 1.2600234375000001 0.46199999999999986 Q 1.2690234375 0.46199999999999986 1.2755234375 0.46799999999999986 Q 1.2820234375 0.47399999999999987 1.2820234375 0.4829999999999999 Q 1.2800234375000001 0.5359999999999998 1.2580234375 0.5789999999999998 Q 1.2360234375 0.6219999999999999 1.1960234375 0.6539999999999998 Q 1.1560234375 0.6859999999999998 1.1010234375 0.7029999999999998 Q 1.0460234375 0.7199999999999999 0.9790234375 0.7199999999999999 M 1.4220166015625 0.7099999999999999 Q 1.4110166015625 0.7099999999999999 1.4040166015625 0.7029999999999998 Q 1.3970166015625 0.6959999999999998 1.3970166015625 0.6849999999999998 L 1.3970166015625 0.03499999999999981 Q 1.3970166015625 0.0239999999999998 1.4040166015625 0.016999999999999793 Q 1.4110166015625 0.009999999999999787 1.4220166015625 0.009999999999999787 L 1.5310166015625 0.009999999999999787 Q 1.5420166015625 0.009999999999999787 1.5490166015625 0.016999999999999793 Q 1.5560166015625 0.0239999999999998 1.5560166015625 0.03499999999999981 L 1.5560166015625 0.28499999999999986 L 1.8270166015625 0.28499999999999986 L 1.8270166015625 0.03499999999999981 Q 1.8270166015625 0.0239999999999998 1.8340166015625 0.016999999999999793 Q 1.8410166015625 0.009999999999999787 1.8520166015625001 0.009999999999999787 L 1.9610166015625001 0.009999999999999787 Q 1.9720166015625 0.009999999999999787 1.9790166015625 0.016999999999999793 Q 1.9860166015625 0.0239999999999998 1.9860166015625 0.03499999999999981 L 1.9860166015625 0.6849999999999998 Q 1.9860166015625 0.6959999999999998 1.9790166015625 0.7029999999999998 Q 1.9720166015625 0.7099999999999999 1.9610166015625001 0.7099999999999999 L 1.8520166015625001 0.7099999999999999 Q 1.8410166015625 0.7099999999999999 1.8340166015625 0.7029999999999998 Q 1.8270166015625 0.6959999999999998 1.8270166015625 0.6849999999999998 L 1.8270166015625 0.4269999999999998 L 1.5560166015625 0.4269999999999998 L 1.5560166015625 0.6849999999999998 Q 1.5560166015625 0.6959999999999998 1.5490166015625 0.7029999999999998 Q 1.5420166015625 0.7099999999999999 1.5310166015625 0.7099999999999999 L 1.4220166015625 0.7099999999999999 M 2.4150161132812498 0.7199999999999999 Q 2.32401611328125 0.7199999999999999 2.2580161132812497 0.6899999999999998 Q 2.19201611328125 0.6599999999999998 2.15501611328125 0.5994999999999998 Q 2.11801611328125 0.5389999999999998 2.11501611328125 0.44699999999999984 Q 2.11401611328125 0.40399999999999986 2.11401611328125 0.3614999999999998 Q 2.11401611328125 0.31899999999999984 2.11501611328125 0.27499999999999986 Q 2.11801611328125 0.18499999999999983 2.1555161132812497 0.12349999999999983 Q 2.19301611328125 0.06199999999999983 2.25951611328125 0.030999999999999805 Q 2.32601611328125 -1.1102230246251565e-16 2.4150161132812498 -1.1102230246251565e-16 Q 2.50301611328125 -1.1102230246251565e-16 2.56951611328125 0.030999999999999805 Q 2.63601611328125 0.06199999999999983 2.67401611328125 0.12349999999999983 Q 2.71201611328125 0.18499999999999983 2.71401611328125 0.27499999999999986 Q 2.71601611328125 0.31899999999999984 2.71601611328125 0.3614999999999998 Q 2.71601611328125 0.40399999999999986 2.71401611328125 0.44699999999999984 Q 2.71101611328125 0.5389999999999998 2.67401611328125 0.5994999999999998 Q 2.63701611328125 0.6599999999999998 2.57101611328125 0.6899999999999998 Q 2.50501611328125 0.7199999999999999 2.4150161132812498 0.7199999999999999 M 2.4150161132812498 0.5909999999999999 Q 2.47301611328125 0.5909999999999999 2.51051611328125 0.5554999999999999 Q 2.5480161132812498 0.5199999999999998 2.55001611328125 0.44199999999999984 Q 2.5520161132812498 0.39799999999999985 2.5520161132812498 0.3594999999999998 Q 2.5520161132812498 0.32099999999999984 2.55001611328125 0.27799999999999986 Q 2.54901611328125 0.22599999999999987 2.53101611328125 0.19299999999999984 Q 2.51301611328125 0.1599999999999998 2.48351611328125 0.14449999999999985 Q 2.45401611328125 0.1289999999999999 2.4150161132812498 0.1289999999999999 Q 2.37601611328125 0.1289999999999999 2.34601611328125 0.14449999999999985 Q 2.31601611328125 0.1599999999999998 2.29851611328125 0.19299999999999984 Q 2.28101611328125 0.22599999999999987 2.27901611328125 0.27799999999999986 Q 2.2780161132812498 0.32099999999999984 2.2780161132812498 0.3594999999999998 Q 2.2780161132812498 0.39799999999999985 2.27901611328125 0.44199999999999984 Q 2.2820161132812498 0.5199999999999998 2.3190161132812497 0.5554999999999999 Q 2.35601611328125 0.5909999999999999 2.4150161132812498 0.5909999999999999 M 2.86801904296875 0.7099999999999999 Q 2.85701904296875 0.7099999999999999 2.85001904296875 0.7029999999999998 Q 2.84301904296875 0.6959999999999998 2.84301904296875 0.6849999999999998 L 2.84301904296875 0.03499999999999981 Q 2.84301904296875 0.0239999999999998 2.85001904296875 0.016999999999999793 Q 2.85701904296875 0.009999999999999787 2.86801904296875 0.009999999999999787 L 3.32101904296875 0.009999999999999787 Q 3.33201904296875 0.009999999999999787 3.33901904296875 0.016999999999999793 Q 3.34601904296875 0.0239999999999998 3.34601904296875 0.03499999999999981 L 3.34601904296875 0.11499999999999988 Q 3.34601904296875 0.12499999999999989 3.33901904296875 0.1319999999999999 Q 3.33201904296875 0.1389999999999998 3.32101904296875 0.1389999999999998 L 2.99701904296875 0.1389999999999998 L 2.99701904296875 0.2959999999999998 L 3.29901904296875 0.2959999999999998 Q 3.31001904296875 0.2959999999999998 3.31701904296875 0.3029999999999998 Q 3.32401904296875 0.30999999999999983 3.32401904296875 0.32099999999999984 L 3.32401904296875 0.39499999999999985 Q 3.32401904296875 0.40499999999999986 3.31701904296875 0.41199999999999987 Q 3.31001904296875 0.4189999999999999 3.29901904296875 0.4189999999999999 L 2.99701904296875 0.4189999999999999 L 2.99701904296875 0.5809999999999998 L 3.32901904296875 0.5809999999999998 Q 3.34001904296875 0.5809999999999998 3.34701904296875 0.5879999999999999 Q 3.35401904296875 0.5949999999999999 3.35401904296875 0.6059999999999999 L 3.35401904296875 0.6849999999999998 Q 3.35401904296875 0.6959999999999998 3.34701904296875 0.7029999999999998 Q 3.34001904296875 0.7099999999999999 3.32901904296875 0.7099999999999999 L 2.86801904296875 0.7099999999999999 M 3.5010239257812503 0.7099999999999999 Q 3.49002392578125 0.7099999999999999 3.48302392578125 0.7029999999999998 Q 3.47602392578125 0.6959999999999998 3.47602392578125 0.6849999999999998 L 3.47602392578125 0.03499999999999981 Q 3.47602392578125 0.0239999999999998 3.48302392578125 0.016999999999999793 Q 3.49002392578125 0.009999999999999787 3.5010239257812503 0.009999999999999787 L 3.75202392578125 0.009999999999999787 Q 3.8520239257812503 0.009999999999999787 3.91902392578125 0.04149999999999987 Q 3.98602392578125 0.07299999999999984 4.02152392578125 0.13349999999999984 Q 4.05702392578125 0.19399999999999984 4.059023925781251 0.28299999999999986 Q 4.06002392578125 0.32699999999999985 4.06002392578125 0.3599999999999998 Q 4.06002392578125 0.39299999999999985 4.059023925781251 0.43599999999999983 Q 4.0560239257812505 0.5289999999999999 4.02202392578125 0.5899999999999999 Q 3.98802392578125 0.6509999999999998 3.92202392578125 0.6804999999999999 Q 3.8560239257812503 0.7099999999999999 3.75702392578125 0.7099999999999999 L 3.5010239257812503 0.7099999999999999 M 3.63502392578125 0.5809999999999998 L 3.75202392578125 0.5809999999999998 Q 3.80202392578125 0.5809999999999998 3.83402392578125 0.5659999999999998 Q 3.86602392578125 0.5509999999999998 3.8815239257812504 0.5184999999999998 Q 3.8970239257812502 0.4859999999999999 3.89802392578125 0.43399999999999983 Q 3.89902392578125 0.40499999999999986 3.89952392578125 0.38199999999999984 Q 3.90002392578125 0.3589999999999998 3.89952392578125 0.33599999999999985 Q 3.89902392578125 0.31299999999999983 3.89802392578125 0.28499999999999986 Q 3.8960239257812503 0.20999999999999985 3.85952392578125 0.17449999999999988 Q 3.82302392578125 0.1389999999999998 3.7470239257812503 0.1389999999999998 L 3.63502392578125 0.1389999999999998 L 3.63502392578125 0.5809999999999998 M 4.469008300781249 0.7199999999999999 Q 4.37500830078125 0.7199999999999999 4.3085083007812495 0.6884999999999999 Q 4.24200830078125 0.6569999999999998 4.20550830078125 0.5964999999999998 Q 4.1690083007812495 0.5359999999999998 4.166008300781249 0.44999999999999984 Q 4.16500830078125 0.40699999999999986 4.16500830078125 0.3579999999999999 Q 4.16500830078125 0.30899999999999983 4.166008300781249 0.26499999999999985 Q 4.1690083007812495 0.18099999999999983 4.20550830078125 0.12199999999999989 Q 4.24200830078125 0.06299999999999983 4.30950830078125 0.03149999999999986 Q 4.37700830078125 -1.1102230246251565e-16 4.469008300781249 -1.1102230246251565e-16 Q 4.54300830078125 -1.1102230246251565e-16 4.59900830078125 0.018999999999999795 Q 4.65500830078125 0.03799999999999981 4.6930083007812495 0.0684999999999999 Q 4.73100830078125 0.09899999999999987 4.751008300781249 0.1349999999999998 Q 4.77100830078125 0.17099999999999982 4.77200830078125 0.20399999999999985 Q 4.77200830078125 0.21299999999999986 4.76600830078125 0.21949999999999986 Q 4.76000830078125 0.22599999999999987 4.75000830078125 0.22599999999999987 L 4.626008300781249 0.22599999999999987 Q 4.61600830078125 0.22599999999999987 4.61050830078125 0.22199999999999986 Q 4.6050083007812495 0.21799999999999986 4.60100830078125 0.20999999999999985 Q 4.594008300781249 0.19199999999999984 4.57850830078125 0.17349999999999988 Q 4.56300830078125 0.1549999999999998 4.53700830078125 0.1419999999999998 Q 4.51100830078125 0.1289999999999999 4.469008300781249 0.1289999999999999 Q 4.40600830078125 0.1289999999999999 4.369508300781249 0.1619999999999998 Q 4.33300830078125 0.19499999999999984 4.33000830078125 0.26999999999999985 Q 4.32700830078125 0.35599999999999987 4.33000830078125 0.44499999999999984 Q 4.33300830078125 0.5229999999999999 4.37050830078125 0.5569999999999998 Q 4.408008300781249 0.5909999999999999 4.47100830078125 0.5909999999999999 Q 4.5120083007812495 0.5909999999999999 4.54450830078125 0.5764999999999998 Q 4.57700830078125 0.5619999999999998 4.59600830078125 0.5309999999999999 Q 4.61500830078125 0.4999999999999999 4.61500830078125 0.45199999999999985 L 4.61500830078125 0.4269999999999998 L 4.50600830078125 0.4269999999999998 Q 4.4960083007812495 0.4269999999999998 4.48900830078125 0.4194999999999999 Q 4.48200830078125 0.41199999999999987 4.48200830078125 0.40199999999999986 L 4.48200830078125 0.33799999999999986 Q 4.48200830078125 0.32699999999999985 4.48900830078125 0.31999999999999984 Q 4.4960083007812495 0.31299999999999983 4.50600830078125 0.31299999999999983 L 4.751008300781249 0.31299999999999983 Q 4.7620083007812495 0.31299999999999983 4.76900830078125 0.31999999999999984 Q 4.77600830078125 0.32699999999999985 4.77600830078125 0.33799999999999986 L 4.77600830078125 0.44699999999999984 Q 4.77600830078125 0.5329999999999999 4.73850830078125 0.5939999999999999 Q 4.7010083007812495 0.6549999999999998 4.63150830078125 0.6874999999999999 Q 4.56200830078125 0.7199999999999999 4.469008300781249 0.7199999999999999 M 4.9260302734375 0.7099999999999999 Q 4.9150302734375 0.7099999999999999 4.9080302734375 0.7029999999999998 Q 4.9010302734375 0.6959999999999998 4.9010302734375 0.6849999999999998 L 4.9010302734375 0.03499999999999981 Q 4.9010302734375 0.0239999999999998 4.9080302734375 0.016999999999999793 Q 4.9150302734375 0.009999999999999787 4.9260302734375 0.009999999999999787 L 5.3790302734375 0.009999999999999787 Q 5.3900302734375 0.009999999999999787 5.3970302734375 0.016999999999999793 Q 5.4040302734375 0.0239999999999998 5.4040302734375 0.03499999999999981 L 5.4040302734375 0.11499999999999988 Q 5.4040302734375 0.12499999999999989 5.3970302734375 0.1319999999999999 Q 5.3900302734375 0.1389999999999998 5.3790302734375 0.1389999999999998 L 5.0550302734375 0.1389999999999998 L 5.0550302734375 0.2959999999999998 L 5.3570302734375 0.2959999999999998 Q 5.3680302734375 0.2959999999999998 5.3750302734375 0.3029999999999998 Q 5.3820302734375 0.30999999999999983 5.3820302734375 0.32099999999999984 L 5.3820302734375 0.39499999999999985 Q 5.3820302734375 0.40499999999999986 5.3750302734375 0.41199999999999987 Q 5.3680302734375 0.4189999999999999 5.3570302734375 0.4189999999999999 L 5.0550302734375 0.4189999999999999 L 5.0550302734375 0.5809999999999998 L 5.3870302734374995 0.5809999999999998 Q 5.3980302734375 0.5809999999999998 5.4050302734375 0.5879999999999999 Q 5.4120302734375 0.5949999999999999 5.4120302734375 0.6059999999999999 L 5.4120302734375 0.6849999999999998 Q 5.4120302734375 0.6959999999999998 5.4050302734375 0.7029999999999998 Q 5.3980302734375 0.7099999999999999 5.3870302734374995 0.7099999999999999 L 4.9260302734375 0.7099999999999999" fill="#000000" fill-rule="nonzero"></path></g><g></g><g clip-path="url(#SvgjsClipPath1079)"><g clip-path="url(#SvgjsClipPath107393f6ca16-fc4f-49c4-ba69-2437baf949f8)"><path d=" M 6.605383451508867 0.22857542188038105 L 6.125548644942457 0.722127712088164 L 5.950685368625157 0.5518369303179884 L 6.463497560107191 0.03777769486855703 C 6.36387260315621 -0.062262943404890275 6.24235509655536 -0.11283750430490169 6.102131930443548 -0.11283750430490169 C 6.0304961825386 -0.11283750430490169 5.960938841245982 -0.09884289978188485 5.8953997527372 -0.07113081161749499 C 5.832077631281569 -0.04438864653885877 5.775267850544569 -0.006007404431178837 5.726494575375243 0.042765870738147194 C 5.677721300205917 0.09153914590747331 5.639340058098237 0.14834892664447247 5.612597893019601 0.2116710481001033 C 5.584885804855212 0.27707157616806327 5.570891200332195 0.3467674779015037 5.570891200332195 0.41840322580645156 C 5.570891200332195 0.4900389737113993 5.584885804855212 0.5595963150040177 5.612597893019601 0.6251354035127998 C 5.639340058098237 0.6884575249684306 5.677721300205917 0.7452673057054298 5.726494575375243 0.7940405808747559 C 5.775267850544569 0.8428138560440819 5.832077631281568 0.8811950981517616 5.8953997527372 0.9079372632303984 C 5.9608002808051594 0.9356493513947881 6.030357622097778 0.9496439559178049 6.102131930443548 0.9496439559178049 C 6.173906238789318 0.9496439559178049 6.243463580081936 0.9355107909539659 6.309002668590718 0.907798702789576 C 6.372324790046349 0.8810565377109398 6.429134570783348 0.8426752956032602 6.477907845952674 0.7939020204339338 C 6.5266811211219995 0.7451287452646076 6.56506236322968 0.6883189645276084 6.591804528308316 0.6249968430719777 C 6.619516616472706 0.5595963150040177 6.633511220995723 0.4900389737113993 6.633511220995723 0.4182646653656296 C 6.633511220995723 0.340532258064516 6.62478191322394 0.2809512685110778 6.605383451508867 0.22857542188038105 Z M 5.968282544609545 0.26086000459189523 C 6.016224457133939 0.21291809206750073 6.093956864435053 0.21291809206750073 6.141898776959447 0.26086000459189523 L 5.968282544609545 0.43447623694179743 C 5.92034063208515 0.38653432441740315 5.92034063208515 0.3088019171162896 5.968282544609545 0.26086000459189523 Z" fill="#000000" transform="matrix(1,0,0,1,0,0)" fill-rule="nonzero" stroke-miterlimit="10" stroke-width="0.027712088164389838" stroke="#3361e1"></path></g><g clip-path="url(#SvgjsClipPath107393f6ca16-fc4f-49c4-ba69-2437baf949f8)"><path d=" M 6.4945350988513075 -0.16840024107450338 L 6.491902450475691 -0.16576759269888633 C 6.477492164630208 -0.1513573068534036 6.47763072507103 -0.12807915279531618 6.492179571357335 -0.11380742739065541 L 6.616052605452158 0.0071558374469062325 L 6.059039633347922 0.5651387326368955 C 6.044629347502439 0.5796875789232001 6.021074072562707 0.5795490184823782 6.007218028480512 0.5658315348410052 C 5.9926691821942075 0.5514212489955226 5.993223423957495 0.5263418092067498 6.009434995533664 0.5122086442429108 C 6.125687205383279 0.39581787395247353 6.241800854792072 0.27928854322121427 6.3580530646416875 0.1628977729307769 C 6.295285184949345 0.0990214097118583 6.207022184145764 0.05953168407760279 6.110445556892865 0.05953168407760279 C 5.919370708999397 0.05953168407760301 5.764460136160458 0.21444225691654228 5.764460136160458 0.4055171048100102 C 5.764460136160458 0.5961762713810121 5.919786390321862 0.751502525542417 6.110445556892865 0.751502525542417 C 6.3015204047863325 0.751502525542417 6.4564309776252715 0.596591952703478 6.4564309776252715 0.40551710481000997 C 6.4564309776252715 0.3931852255768566 6.456708098506915 0.3801605441395934 6.455461054539518 0.3681057857880837 L 6.1600501947071225 0.6637937665021234 C 6.14702551326986 0.6768184479393866 6.126102886705745 0.6773726897026744 6.113355326150126 0.6660107335552745 C 6.099360721627109 0.6535402938812991 6.098529358982177 0.6299850189415679 6.113355326150126 0.6158518539777289 C 6.298749195969894 0.430319423717139 6.48331170314473 0.24631115830559047 6.668705572964498 0.06077872804500045 L 6.786066266340689 0.18063350935598654 C 6.801723596153569 0.1962908391688668 6.826941596383164 0.19656796005051064 6.842876047077688 0.18146487200091826 C 6.843430288840976 0.18091063023763043 6.8439845306042635 0.18049494891516454 6.844538772367551 0.1799407071518767 C 6.850635431763718 0.17495253128228655 6.854515124106732 0.16774738835954522 6.855623607633308 0.15998800367351612 L 6.909385058672224 -0.2434999999999999 C 6.909385058672223 -0.24349999999999983 6.510469549545832 -0.18433469176902753 6.4945350988513075 -0.16840024107450338 Z M 5.968282544609545 0.26086000459189523 C 6.016224457133939 0.21291809206750073 6.093956864435053 0.21291809206750073 6.141898776959447 0.26086000459189523 L 5.968282544609545 0.43447623694179743 C 5.92034063208515 0.38653432441740315 5.92034063208515 0.3088019171162896 5.968282544609545 0.26086000459189523 Z" fill="#3361e1" transform="matrix(1,0,0,1,0,0)" fill-rule="nonzero"></path></g></g></g><defs><clipPath id="SvgjsClipPath1079"><path d=" M 5.5570351562499996 -0.24349999999999988 h 1.3523499024222243 v 1.2069999999999996 h -1.3523499024222243 Z"></path></clipPath><clipPath id="SvgjsClipPath107393f6ca16-fc4f-49c4-ba69-2437baf949f8"><path d=" M 5.5570351562499996 -0.24349999999999988 L 6.909385058672224 -0.24349999999999988 L 6.909385058672224 0.9634999999999998 L 5.5570351562499996 0.9634999999999998 Z"></path></clipPath></defs></svg>